<?xml version="1.0" encoding="UTF-8" standalone="no"?>
<!-- Created with Inkscape (http://www.inkscape.org/) -->

<svg
   xmlns:dc="http://purl.org/dc/elements/1.1/"
   xmlns:cc="http://creativecommons.org/ns#"
   xmlns:rdf="http://www.w3.org/1999/02/22-rdf-syntax-ns#"
   xmlns:svg="http://www.w3.org/2000/svg"
   xmlns="http://www.w3.org/2000/svg"
   xmlns:sodipodi="http://sodipodi.sourceforge.net/DTD/sodipodi-0.dtd"
   xmlns:inkscape="http://www.inkscape.org/namespaces/inkscape"
   width="400"
   height="200"
   viewBox="0 0 400 200"
   version="1.1"
   id="svg823"
   inkscape:version="0.92.2 5c3e80d, 2017-08-06"
   sodipodi:docname="github.svg">
  <defs
     id="defs817" />
  <sodipodi:namedview
     id="base"
     pagecolor="#ffffff"
     bordercolor="#666666"
     borderopacity="1.0"
     inkscape:pageopacity="0.0"
     inkscape:pageshadow="2"
     inkscape:zoom="0.7"
     inkscape:cx="260"
     inkscape:cy="102.85714"
     inkscape:document-units="mm"
     inkscape:current-layer="layer1"
     showgrid="false"
     inkscape:window-width="2560"
     inkscape:window-height="1315"
     inkscape:window-x="0"
     inkscape:window-y="1"
     inkscape:window-maximized="1" />
  <metadata
     id="metadata820">
    <rdf:RDF>
      <cc:Work
         rdf:about="">
        <dc:format>image/svg+xml</dc:format>
        <dc:type
           rdf:resource="http://purl.org/dc/dcmitype/StillImage" />
        <dc:title></dc:title>
      </cc:Work>
    </rdf:RDF>
  </metadata>
  <g
     inkscape:label="Ebene 1"
     inkscape:groupmode="layer"
     id="layer1">
    <g
       id="g1459"
       transform="translate(-0.71428108,-0.71428871)">
      <rect
         ry="4.0781298"
         y="18.571428"
         x="18.571428"
         height="164.28572"
         width="364.28571"
         id="rect1368"
         style="fill:#f1f5f6;fill-opacity:1;stroke:#1bacab;stroke-width:5.99811029;stroke-linecap:round;stroke-linejoin:round;stroke-miterlimit:4;stroke-dasharray:17.99433088, 17.99433088;stroke-dashoffset:0;stroke-opacity:0" />
      <g
         transform="translate(2.1419039,-13.645869)"
         id="g1452">
        <path
           id="path1434"
           d="m 84.891909,68.431999 q 12.812484,0 23.632081,6.316013 10.81961,6.316013 17.13565,17.135622 6.316,10.819616 6.316,23.632106 0,15.38596 -8.98363,27.67277 -8.98367,12.2868 -23.200584,17.01008 -1.65552,0.30599 -2.447959,-0.43153 -0.792423,-0.73752 -0.8003,-1.83596 0,-0.18046 0,-4.6919 0,-4.51144 0,-8.24612 0,-5.94725 -3.185462,-8.70119 3.49146,-0.36876 6.284645,-1.10628 2.79319,-0.73753 5.75894,-2.39303 2.96579,-1.6555 4.9665,-4.07991 2.00076,-2.4244 3.24827,-6.4337 1.24751,-4.0093 1.25533,-9.22688 0,-7.29676 -4.84095,-12.62418 2.26748,-5.578497 -0.48648,-12.506496 -1.71824,-0.549218 -4.9665,0.674755 -3.24822,1.223972 -5.641262,2.699016 l -2.330226,1.467198 q -5.704056,-1.592732 -11.768991,-1.592732 -6.064928,0 -11.768984,1.592732 -0.980741,-0.674755 -2.604826,-1.655501 -1.624134,-0.980746 -5.115594,-2.361638 -3.491458,-1.380897 -5.209747,-0.82383 -2.761785,6.927999 -0.486434,12.506496 -4.840996,5.33527 -4.840996,12.62418 0,5.20973 1.255382,9.1955 1.255335,3.98575 3.216863,6.43369 1.961483,2.44795 4.935107,4.10345 2.973624,1.6555 5.758938,2.39303 2.785312,0.73752 6.284644,1.10628 -2.393034,2.20472 -3.005025,6.31602 -1.286736,0.61198 -2.761785,0.91798 -1.475049,0.30598 -3.49146,0.30598 -2.016411,0 -4.017121,-1.31811 -2.000756,-1.31813 -3.405176,-3.82884 -1.161179,-1.9615 -2.973624,-3.18547 -1.812398,-1.22398 -3.036379,-1.46719 l -1.223982,-0.18047 q -1.286736,0 -1.781043,0.27461 -0.494308,0.27461 -0.305995,0.70614 0.188312,0.43153 0.549235,0.85521 0.360924,0.42368 0.800255,0.73752 l 0.431553,0.306 q 1.349492,0.61199 2.66763,2.33026 1.318137,1.71827 1.930127,3.12269 l 0.611991,1.41228 q 0.800256,2.33026 2.698982,3.76607 1.898728,1.43582 4.103451,1.83596 2.204722,0.40014 4.260361,0.43153 2.055685,0.0314 3.405177,-0.21185 l 1.412293,-0.24322 q 0,2.33026 0,5.42157 0,3.09132 0,3.34239 0,1.10629 -0.800303,1.83596 -0.800302,0.72968 -2.447963,0.43153 -14.216903,-4.72328 -23.200531,-17.01008 -8.983674,-12.28681 -8.983674,-27.67277 0,-12.81249 6.315998,-23.632106 6.316046,-10.819609 17.135646,-17.135622 10.819601,-6.316013 23.632081,-6.316013 z M 55.64993,136.04082 q 0.180485,-0.43153 -0.431506,-0.73753 -0.611991,-0.18046 -0.800303,0.12554 -0.180485,0.43153 0.431506,0.73752 0.549236,0.36876 0.800303,-0.12553 z m 1.9066,2.08702 q 0.431506,-0.30599 -0.125557,-0.98074 -0.611991,-0.54922 -0.980741,-0.18046 -0.431552,0.306 0.12551,0.98075 0.611991,0.61198 0.980788,0.18045 z m 1.835925,2.75395 q 0.549236,-0.43153 0,-1.16121 -0.486433,-0.80029 -1.043496,-0.36876 -0.549235,0.306 0,1.10628 0.549235,0.80029 1.043496,0.43153 z m 2.573473,2.57348 q 0.486481,-0.48645 -0.243193,-1.1612 -0.737548,-0.73753 -1.223981,-0.18046 -0.549237,0.48645 0.24324,1.1612 0.7375,0.73753 1.223934,0.18046 z m 3.491506,1.53781 q 0.180438,-0.67475 -0.800303,-0.98074 -0.917985,-0.24323 -1.161226,0.43152 -0.243193,0.67476 0.800303,0.91798 0.917986,0.36876 1.161226,-0.36876 z m 3.868037,0.30599 q 0,-0.80029 -1.043496,-0.67475 -0.980742,0 -0.980742,0.67475 0,0.80029 1.043497,0.67475 0.980741,0 0.980741,-0.67475 z m 3.554261,-0.61198 q -0.125557,-0.67475 -1.106298,-0.54922 -0.980741,0.18046 -0.855231,0.91798 0.125557,0.73752 1.106298,0.48644 0.980741,-0.25106 0.855231,-0.8552 z"
           inkscape:connector-curvature="0"
           style="fill:#1bacab;stroke-width:7.84598064" />
        <text
           xml:space="preserve"
           style="font-style:normal;font-variant:normal;font-weight:normal;font-stretch:normal;font-size:64px;line-height:1.25;font-family:'Exo 2';-inkscape-font-specification:'Exo 2, ';letter-spacing:0px;word-spacing:0px;fill:#1bacab;fill-opacity:1;stroke:none"
           x="148.57143"
           y="138.21953"
           id="text1447"><tspan
             sodipodi:role="line"
             id="tspan1445"
             x="148.57143"
             y="138.21953"
             style="font-style:normal;font-variant:normal;font-weight:normal;font-stretch:normal;font-size:64px;font-family:sans-serif;-inkscape-font-specification:sans-serif">Github</tspan></text>
      </g>
    </g>
  </g>
</svg>
